<?xml version="1.0" standalone="no"?>
<!DOCTYPE svg PUBLIC "-//W3C//DTD SVG 20010904//EN"
 "http://www.w3.org/TR/2001/REC-SVG-20010904/DTD/svg10.dtd">
<svg version="1.0" xmlns="http://www.w3.org/2000/svg"
 width="681.000000pt" height="666.000000pt" viewBox="0 0 681.000000 666.000000"
 preserveAspectRatio="xMidYMid meet">
<metadata>
Created by potrace 1.10, written by Peter Selinger 2001-2011
</metadata>
<g transform="translate(0.000000,666.000000) scale(0.100000,-0.100000)"
fill="#ffffff" stroke="none">
<path d="M1435 6081 c-62 -9 -116 -28 -178 -63 -26 -16 -50 -28 -52 -28 -6 0
-129 -126 -142 -146 -7 -11 -22 -39 -34 -64 -12 -25 -29 -60 -38 -79 -15 -32
-16 -201 -16 -2051 0 -1939 1 -2017 19 -2060 10 -25 22 -52 27 -60 4 -8 17
-34 29 -57 12 -23 54 -73 94 -111 65 -62 95 -80 201 -127 77 -34 181 -36 1760
-33 1528 3 1560 3 1563 22 4 17 -10 74 -40 161 -5 17 -14 46 -18 65 -21 84
-33 127 -46 158 -15 35 -18 74 -8 85 4 4 35 -21 69 -56 34 -34 82 -80 106
-102 60 -54 239 -220 443 -410 6 -6 49 -44 96 -84 47 -41 87 -77 90 -81 3 -3
55 -48 115 -100 61 -52 124 -108 141 -125 91 -89 199 -175 206 -165 2 3 1
1150 -2 2550 -5 2483 -5 2546 -24 2585 -11 22 -28 58 -38 80 -29 61 -38 73
-103 138 -62 61 -133 107 -220 142 -49 20 -74 20 -2000 21 -1072 1 -1972 -2
-2000 -5z m1552 -1298 c4 -11 -77 -53 -103 -53 -7 0 -28 -6 -46 -14 -18 -8
-53 -22 -78 -31 -25 -10 -58 -23 -75 -31 -16 -7 -37 -15 -45 -18 -8 -3 -22
-10 -30 -15 -8 -5 -22 -12 -30 -15 -15 -6 -24 -11 -65 -34 -11 -7 -29 -17 -40
-22 -11 -6 -33 -19 -50 -30 -16 -11 -38 -23 -47 -26 -21 -7 -24 -34 -4 -34 7
0 19 7 26 15 7 8 21 15 30 15 10 0 33 8 52 17 18 9 45 22 60 30 14 7 33 13 42
13 8 0 30 6 48 14 59 25 133 46 158 46 15 0 30 4 36 10 5 5 42 14 83 20 40 6
77 13 81 15 18 11 273 29 410 30 162 0 370 -17 413 -34 16 -6 41 -11 57 -11
15 0 52 -7 81 -16 30 -8 79 -22 109 -30 30 -9 69 -22 85 -29 17 -7 39 -16 50
-18 42 -11 96 -34 107 -45 7 -7 18 -12 26 -12 8 0 27 -8 43 -17 22 -13 32 -14
41 -5 8 8 5 14 -14 21 -14 5 -27 13 -29 18 -2 4 -24 18 -49 31 -25 13 -65 34
-90 47 -25 13 -76 38 -115 55 -38 17 -83 37 -98 45 -16 8 -35 15 -43 15 -9 0
-25 6 -37 12 -12 7 -40 17 -62 23 -42 10 -59 40 -33 56 28 19 216 -6 323 -42
17 -6 45 -15 64 -19 18 -5 38 -13 44 -19 6 -6 21 -11 33 -11 12 0 27 -7 34
-15 7 -8 20 -15 30 -15 10 0 23 -7 30 -15 7 -8 20 -15 30 -15 10 0 23 -7 30
-15 7 -8 16 -15 20 -15 5 0 42 -23 83 -51 83 -56 87 -61 184 -286 9 -21 22
-50 30 -65 7 -14 13 -34 13 -43 0 -9 6 -29 14 -43 15 -30 33 -81 46 -127 5
-16 13 -43 18 -60 15 -44 58 -201 83 -300 6 -27 15 -75 19 -107 4 -31 11 -61
15 -67 3 -7 11 -51 16 -99 5 -48 13 -109 18 -137 6 -27 10 -118 10 -201 l1
-151 -56 -62 c-51 -56 -186 -167 -224 -184 -8 -4 -22 -11 -30 -16 -8 -5 -22
-12 -30 -15 -8 -3 -22 -10 -30 -14 -43 -25 -83 -42 -95 -42 -7 0 -26 -7 -41
-15 -16 -8 -39 -15 -52 -15 -13 0 -44 -6 -70 -14 -26 -8 -84 -17 -130 -19 -79
-5 -84 -4 -111 21 -15 15 -42 47 -61 72 -18 25 -47 59 -63 77 -34 37 -31 60
10 68 31 7 55 17 158 66 39 19 74 40 78 47 4 6 13 12 19 12 22 0 158 121 158
140 0 13 -27 13 -35 -1 -4 -5 -17 -14 -28 -20 -12 -5 -29 -13 -37 -18 -8 -5
-22 -12 -30 -15 -8 -3 -22 -10 -30 -14 -14 -8 -42 -21 -122 -56 -77 -33 -206
-76 -229 -76 -9 0 -30 -7 -45 -15 -16 -8 -43 -15 -61 -15 -17 0 -60 -7 -95
-17 -50 -13 -113 -16 -309 -16 -246 0 -258 1 -444 43 -27 6 -68 15 -90 19 -22
4 -50 13 -62 19 -12 7 -32 12 -45 12 -13 0 -33 7 -44 15 -10 8 -28 15 -40 15
-11 0 -29 7 -40 15 -10 8 -27 15 -36 15 -9 0 -31 8 -50 17 -18 9 -40 20 -49
24 -59 27 -119 63 -119 70 0 5 -9 9 -20 9 -11 0 -20 -4 -20 -9 0 -18 138 -141
158 -141 5 0 14 -6 20 -13 6 -6 41 -27 79 -45 101 -50 126 -61 148 -64 24 -4
33 -38 13 -52 -7 -6 -35 -38 -60 -71 -25 -33 -59 -74 -76 -91 l-29 -32 -94 5
c-52 3 -109 12 -128 19 -18 8 -43 14 -55 14 -21 0 -121 32 -154 50 -9 5 -37
18 -62 30 -119 56 -262 173 -328 267 -20 29 -22 44 -22 169 0 125 14 266 41
404 6 30 15 78 19 105 8 57 25 130 46 196 8 26 14 55 14 65 0 11 7 32 15 48 8
15 15 36 15 45 0 20 27 107 46 144 8 16 14 35 14 42 0 8 6 29 14 47 8 18 22
53 31 78 25 63 37 91 94 210 48 102 52 106 118 150 64 42 150 92 183 106 36
15 87 38 112 51 14 7 33 13 42 13 8 0 30 6 48 14 105 44 335 70 345 39z"/>
<path d="M2820 3751 c-63 -23 -85 -37 -123 -74 -48 -49 -86 -140 -87 -214 0
-37 18 -121 31 -143 5 -8 13 -24 18 -35 11 -24 67 -78 101 -96 53 -29 122 -39
189 -26 59 10 69 16 125 72 78 77 91 107 90 220 -1 116 -16 156 -84 225 -46
45 -67 58 -117 73 -74 20 -85 20 -143 -2z"/>
<path d="M3830 3751 c-80 -24 -159 -104 -188 -192 -12 -36 -22 -79 -22 -96 0
-34 31 -139 52 -173 15 -26 76 -90 85 -90 4 0 14 -6 22 -14 9 -7 42 -18 75
-24 93 -19 180 8 243 74 81 86 114 213 78 301 -8 19 -15 44 -15 54 0 11 -28
47 -63 82 -51 51 -73 65 -123 80 -70 20 -72 20 -144 -2z"/>
</g>
</svg>
