<?xml version="1.0" standalone="no"?>
<!DOCTYPE svg PUBLIC "-//W3C//DTD SVG 20010904//EN"
 "http://www.w3.org/TR/2001/REC-SVG-20010904/DTD/svg10.dtd">
<svg version="1.0" xmlns="http://www.w3.org/2000/svg"
 width="720.000000pt" height="720.000000pt" viewBox="0 0 720.000000 720.000000"
 preserveAspectRatio="xMidYMid meet">
<metadata>
Created by potrace 1.10, written by Peter Selinger 2001-2011
</metadata>
<g transform="translate(0.000000,720.000000) scale(0.100000,-0.100000)"
fill="#ffffff" stroke="none">
<path d="M1293 7188 c1 -8 -17 -16 -48 -21 -27 -4 -70 -13 -95 -19 -25 -6 -61
-14 -80 -18 -77 -18 -190 -67 -331 -143 -199 -107 -445 -353 -546 -545 -7 -13
-22 -41 -32 -61 -48 -90 -96 -209 -111 -271 -4 -19 -12 -55 -18 -80 -6 -25
-16 -72 -21 -106 -15 -84 -15 -4584 0 -4668 5 -34 15 -81 21 -106 6 -25 14
-61 18 -80 15 -62 63 -181 111 -271 10 -20 25 -48 32 -61 101 -192 347 -438
546 -545 141 -76 254 -125 331 -143 19 -4 55 -12 80 -18 25 -6 72 -16 106 -21
84 -15 4584 -15 4668 0 34 5 81 15 106 21 25 6 61 14 80 18 81 19 234 86 340
149 19 11 42 24 50 28 99 45 407 354 453 453 4 8 17 31 28 50 63 106 130 259
149 340 4 19 12 55 18 80 6 25 15 68 19 95 5 31 13 49 21 47 9 -1 12 483 12
2298 0 1815 -3 2299 -12 2297 -8 -1 -16 17 -21 48 -4 28 -13 70 -19 95 -6 25
-14 61 -18 80 -19 81 -86 234 -149 340 -11 19 -24 42 -28 50 -46 99 -354 408
-453 453 -8 4 -31 17 -50 28 -106 63 -259 130 -340 149 -19 4 -55 12 -80 18
-25 6 -67 15 -95 19 -31 5 -49 13 -48 21 2 9 -482 12 -2297 12 -1815 0 -2299
-3 -2297 -12z m772 -977 c76 -20 148 -56 208 -105 46 -37 121 -135 142 -186 4
-8 14 -33 23 -55 24 -56 24 -274 0 -330 -9 -22 -19 -47 -23 -55 -53 -127 -155
-217 -321 -285 -31 -13 -71 -17 -154 -17 -113 0 -131 4 -230 50 -81 38 -193
142 -220 204 -5 13 -14 30 -19 38 -37 61 -46 107 -46 230 0 95 4 135 17 165 9
22 19 47 23 55 21 51 96 149 142 186 135 109 301 147 458 105z m320 -3071 l0
-1645 -445 0 -445 0 -3 1635 c-1 899 0 1641 3 1648 3 10 98 12 447 10 l443 -3
0 -1645z m1503 1400 c2 -227 10 -294 28 -244 11 30 87 124 141 175 45 43 143
119 188 146 44 26 162 83 173 83 6 0 26 6 44 14 98 42 283 76 408 76 94 0 292
-28 360 -51 101 -33 228 -99 310 -160 88 -64 218 -203 243 -259 4 -8 16 -28
27 -45 11 -16 23 -37 26 -45 4 -8 17 -38 30 -66 30 -67 54 -131 63 -174 5 -19
13 -53 19 -75 6 -22 18 -92 27 -155 14 -101 16 -243 13 -1190 l-3 -1075 -445
0 -445 0 -6 920 c-4 700 -8 931 -18 965 -28 98 -44 146 -57 167 -8 12 -14 27
-14 33 0 7 -17 37 -37 67 -121 182 -314 271 -533 243 -84 -10 -110 -19 -233
-83 -62 -33 -217 -209 -217 -248 0 -7 -6 -20 -13 -28 -7 -9 -21 -41 -30 -71
-8 -30 -21 -73 -29 -95 -9 -31 -14 -253 -18 -955 l-5 -915 -445 0 -445 0 -3
1635 c-1 899 0 1641 3 1648 3 10 98 12 447 10 l443 -3 3 -245z"/>
</g>
</svg>
