<?xml version="1.0" standalone="no"?>
<!DOCTYPE svg PUBLIC "-//W3C//DTD SVG 20010904//EN"
 "http://www.w3.org/TR/2001/REC-SVG-20010904/DTD/svg10.dtd">
<svg version="1.0" xmlns="http://www.w3.org/2000/svg"
 width="240.000000pt" height="240.000000pt" viewBox="0 0 240.000000 240.000000"
 preserveAspectRatio="xMidYMid meet">
<metadata>
Created by potrace 1.16, written by Peter Selinger 2001-2019
</metadata>
<g transform="translate(0.000000,240.000000) scale(0.100000,-0.100000)"
fill="#000000" stroke="none">
<path d="M0 1200 l0 -1200 1200 0 1200 0 0 1200 0 1200 -1200 0 -1200 0 0
-1200z m1057 256 c95 -209 177 -384 182 -389 5 -5 74 156 164 380 l155 388
221 3 c262 3 261 3 151 -96 l-70 -63 0 -477 0 -477 71 -71 c40 -41 68 -77 65
-83 -5 -8 -102 -11 -317 -11 -362 0 -353 -4 -239 102 l70 64 -1 370 c0 203 -3
365 -5 359 -3 -5 -83 -206 -177 -445 -162 -408 -174 -435 -198 -438 -25 -3
-33 13 -229 440 -111 244 -204 445 -206 447 -2 2 -4 -140 -4 -317 l0 -321 95
-115 c52 -63 95 -119 95 -125 0 -8 -75 -11 -240 -11 -191 0 -240 3 -240 13 0
7 38 58 83 113 46 55 89 109 95 121 9 15 12 133 12 405 l0 383 -86 103 c-54
64 -84 108 -80 117 5 13 39 15 233 13 l227 -3 173 -379z"/>
</g>
</svg>
