<?xml version="1.0" standalone="no"?>
<!DOCTYPE svg PUBLIC "-//W3C//DTD SVG 20010904//EN"
 "http://www.w3.org/TR/2001/REC-SVG-20010904/DTD/svg10.dtd">
<svg version="1.0" xmlns="http://www.w3.org/2000/svg"
 width="240.000000pt" height="240.000000pt" viewBox="0 0 240.000000 240.000000"
 preserveAspectRatio="xMidYMid meet">
<metadata>
Created by potrace 1.16, written by Peter Selinger 2001-2019
</metadata>
<g transform="translate(0.000000,240.000000) scale(0.100000,-0.100000)"
fill="#000000" stroke="none">
<path d="M1425 1703 c-57 -8 -140 -35 -182 -60 l-43 -25 0 -504 0 -504 488 0
487 0 50 24 c59 27 119 90 147 154 100 226 -95 485 -324 430 l-58 -15 -6 26
c-38 194 -122 326 -259 406 -88 53 -212 80 -300 68z"/>
<path d="M1064 1480 c-22 -33 -29 -38 -45 -29 -18 9 -19 -2 -19 -416 l0 -425
50 0 50 0 0 455 c0 250 -2 455 -5 455 -3 0 -17 -18 -31 -40z"/>
<path d="M818 1493 c-17 -4 -18 -34 -18 -444 l0 -439 50 0 50 0 0 439 0 439
-22 6 c-25 6 -34 6 -60 -1z"/>
<path d="M648 1443 l-48 -26 0 -404 0 -403 50 0 50 0 0 430 c0 237 -1 430 -2
430 -2 0 -24 -12 -50 -27z"/>
<path d="M467 1248 c-14 -29 -28 -61 -31 -72 -4 -11 -12 -16 -21 -12 -13 5
-15 -31 -15 -274 l0 -280 50 0 50 0 0 345 c0 190 -2 345 -4 345 -3 0 -16 -24
-29 -52z"/>
<path d="M213 1193 c-10 -3 -13 -71 -13 -288 0 -313 -4 -295 66 -295 l34 0 0
295 0 295 -37 -1 c-21 0 -44 -3 -50 -6z"/>
<path d="M56 1078 c-78 -119 -71 -269 18 -373 l25 -30 1 228 c0 125 -2 227 -5
227 -3 0 -20 -24 -39 -52z"/>
</g>
</svg>
