<?xml version="1.0" standalone="no"?>
<!DOCTYPE svg PUBLIC "-//W3C//DTD SVG 20010904//EN"
 "http://www.w3.org/TR/2001/REC-SVG-20010904/DTD/svg10.dtd">
<svg version="1.0" xmlns="http://www.w3.org/2000/svg"
 width="720.000000pt" height="720.000000pt" viewBox="0 0 720.000000 720.000000"
 preserveAspectRatio="xMidYMid meet">
<metadata>
Created by potrace 1.10, written by Peter Selinger 2001-2011
</metadata>
<g transform="translate(0.000000,720.000000) scale(0.100000,-0.100000)"
fill="#ffffff" stroke="none">
<path d="M4260 5098 c-152 -18 -304 -60 -413 -114 -16 -8 -33 -14 -37 -14 -5
0 -57 -28 -115 -62 l-105 -62 2 -1516 3 -1515 1430 0 c1366 0 1433 1 1495 19
36 10 79 24 95 31 119 53 180 90 240 146 22 21 51 48 66 61 34 32 132 164 156
213 46 91 72 160 83 227 10 55 18 71 31 63 5 -4 9 58 9 156 0 133 -3 164 -15
173 -9 6 -19 34 -24 61 -10 54 -25 104 -47 148 -8 16 -14 32 -14 37 0 16 -76
137 -128 201 -28 37 -82 92 -120 122 -64 53 -86 66 -201 126 -68 36 -231 71
-331 71 -108 0 -272 -36 -330 -72 -29 -18 -36 -3 -50 101 -29 217 -118 475
-219 636 -42 67 -50 79 -60 102 -5 11 -15 24 -21 28 -6 3 -29 32 -52 63 -46
64 -182 202 -243 247 -22 17 -49 38 -59 47 -41 37 -296 178 -322 178 -7 0 -25
6 -41 14 -15 8 -55 22 -88 31 -33 9 -73 21 -90 26 -40 13 -285 39 -355 37 -30
0 -89 -5 -130 -10z"/>
<path d="M3207 4470 c-37 -49 -67 -93 -67 -97 0 -4 -9 -17 -21 -29 -18 -19
-25 -21 -48 -11 -14 6 -34 18 -44 26 -11 9 -21 11 -27 5 -7 -7 -9 -460 -8
-1280 l3 -1269 145 0 145 0 3 1364 c1 751 -1 1368 -6 1373 -4 4 -38 -33 -75
-82z"/>
<path d="M2460 4474 c-14 -3 -35 -7 -48 -9 l-22 -5 2 -1323 3 -1322 145 0 145
0 3 1321 2 1322 -22 6 c-32 8 -178 15 -208 10z"/>
<path d="M2050 4381 c-8 -5 -33 -17 -55 -27 -22 -11 -77 -43 -123 -72 l-82
-53 2 -1207 3 -1207 145 0 145 0 3 1288 c2 1026 0 1287 -10 1286 -7 0 -20 -4
-28 -8z"/>
<path d="M1454 3859 c-10 -19 -24 -43 -30 -54 -14 -24 -51 -98 -69 -140 -39
-90 -45 -107 -45 -121 0 -8 -7 -28 -15 -44 -17 -33 -45 -39 -65 -15 -7 8 -19
15 -26 15 -12 0 -14 -131 -12 -842 l3 -843 145 0 145 0 3 1029 c1 617 -2 1034
-7 1039 -6 6 -16 -4 -27 -24z"/>
<path d="M645 3571 l-50 -18 -3 -851 -2 -850 48 -16 c28 -10 89 -17 148 -19
l99 -2 3 888 2 887 -97 -1 c-66 0 -114 -6 -148 -18z"/>
<path d="M238 3332 c-113 -120 -195 -282 -228 -447 -13 -69 -8 -334 8 -405 25
-109 81 -226 158 -325 72 -95 90 -115 103 -115 13 0 16 1316 3 1324 -5 3 -24
-12 -44 -32z"/>
</g>
</svg>
