<?xml version="1.0" standalone="no"?>
<!DOCTYPE svg PUBLIC "-//W3C//DTD SVG 20010904//EN"
 "http://www.w3.org/TR/2001/REC-SVG-20010904/DTD/svg10.dtd">
<svg version="1.0" xmlns="http://www.w3.org/2000/svg"
 width="720.000000pt" height="720.000000pt" viewBox="0 0 720.000000 720.000000"
 preserveAspectRatio="xMidYMid meet">
<metadata>
Created by potrace 1.10, written by Peter Selinger 2001-2011
</metadata>
<g transform="translate(0.000000,720.000000) scale(0.100000,-0.100000)"
fill="#ffffff" stroke="none">
<path d="M6840 6264 c-36 -14 -76 -29 -90 -34 -14 -5 -50 -18 -80 -30 -30 -12
-66 -24 -80 -27 -14 -3 -34 -12 -45 -19 -11 -8 -29 -14 -40 -14 -11 0 -29 -7
-39 -15 -11 -8 -29 -15 -40 -15 -12 0 -30 -7 -40 -15 -11 -8 -29 -15 -41 -15
-11 0 -29 -6 -40 -14 -11 -7 -31 -16 -45 -19 -14 -3 -50 -15 -80 -27 -30 -12
-66 -25 -80 -30 -14 -5 -50 -18 -80 -30 -30 -12 -66 -25 -80 -30 -14 -5 -50
-18 -80 -30 -30 -12 -66 -25 -80 -30 -14 -5 -50 -18 -80 -30 -30 -12 -66 -25
-80 -30 -14 -5 -50 -18 -80 -30 -30 -12 -66 -25 -80 -30 -14 -5 -50 -18 -80
-30 -30 -12 -66 -25 -80 -30 -14 -5 -50 -18 -80 -30 -30 -12 -66 -25 -80 -30
-14 -5 -50 -18 -80 -30 -30 -12 -66 -25 -80 -30 -14 -5 -50 -18 -80 -30 -30
-12 -66 -25 -80 -30 -14 -5 -50 -18 -80 -30 -30 -12 -66 -24 -80 -27 -14 -3
-34 -12 -45 -19 -11 -8 -29 -14 -40 -14 -11 0 -29 -7 -39 -15 -11 -8 -29 -15
-41 -15 -12 0 -30 -7 -41 -15 -10 -8 -28 -15 -40 -15 -11 0 -29 -7 -40 -15
-10 -8 -28 -15 -39 -15 -11 0 -29 -6 -40 -14 -11 -7 -31 -16 -45 -19 -14 -3
-50 -15 -80 -27 -30 -12 -66 -25 -80 -30 -14 -5 -50 -18 -80 -30 -30 -12 -66
-25 -80 -30 -14 -5 -50 -18 -80 -30 -30 -12 -66 -25 -80 -30 -14 -5 -50 -18
-80 -30 -30 -12 -66 -25 -80 -30 -14 -5 -50 -18 -80 -30 -30 -12 -66 -25 -80
-30 -14 -5 -50 -18 -80 -30 -30 -12 -66 -25 -80 -30 -14 -5 -50 -18 -80 -30
-30 -12 -66 -25 -80 -30 -14 -5 -50 -18 -80 -30 -30 -12 -66 -25 -80 -30 -14
-5 -50 -18 -80 -30 -30 -12 -66 -24 -80 -27 -14 -3 -34 -12 -45 -19 -11 -8
-29 -14 -40 -14 -11 0 -29 -7 -39 -15 -11 -8 -29 -15 -40 -15 -12 0 -30 -7
-40 -15 -11 -8 -29 -15 -41 -15 -12 0 -30 -7 -41 -15 -10 -8 -28 -15 -39 -15
-11 0 -29 -6 -40 -14 -11 -7 -31 -16 -45 -19 -14 -3 -50 -15 -80 -27 -30 -12
-66 -25 -80 -30 -14 -5 -50 -18 -80 -30 -30 -12 -66 -25 -80 -30 -14 -5 -50
-18 -80 -30 -30 -12 -66 -25 -80 -30 -14 -5 -50 -18 -80 -30 -78 -30 -131 -50
-160 -60 -14 -5 -50 -18 -80 -30 -30 -12 -66 -25 -80 -30 -14 -5 -50 -18 -80
-30 -30 -12 -66 -25 -80 -30 -14 -5 -50 -18 -80 -30 -30 -12 -66 -25 -80 -30
-14 -5 -50 -18 -80 -30 -30 -12 -64 -24 -75 -27 -11 -3 -33 -11 -50 -18 -88
-38 -107 -45 -123 -45 -9 0 -26 -7 -36 -15 -11 -8 -29 -15 -40 -15 -12 0 -30
-7 -40 -15 -11 -8 -29 -15 -41 -15 -12 0 -30 -7 -41 -15 -10 -8 -28 -15 -40
-15 -11 0 -29 -7 -40 -15 -10 -8 -28 -15 -39 -15 -11 0 -29 -6 -40 -14 -11 -7
-31 -16 -45 -19 -14 -3 -50 -15 -80 -27 -30 -12 -66 -25 -80 -30 -142 -49
-204 -81 -253 -128 -20 -20 -37 -44 -37 -53 0 -10 -4 -21 -10 -24 -15 -9 -12
-148 4 -186 8 -19 34 -52 58 -75 45 -42 81 -60 183 -89 33 -10 76 -23 95 -30
19 -7 62 -20 95 -30 126 -38 161 -48 195 -60 19 -7 62 -20 95 -30 33 -10 83
-25 110 -33 28 -8 65 -21 83 -28 18 -8 41 -14 52 -14 11 0 34 -6 52 -14 18 -7
60 -22 93 -31 117 -35 160 -48 195 -60 19 -7 62 -20 95 -30 126 -38 161 -48
195 -60 19 -7 62 -20 95 -29 106 -31 113 -38 145 -151 4 -16 14 -46 21 -65 6
-19 17 -51 24 -70 7 -19 18 -51 24 -70 7 -19 16 -48 21 -65 5 -16 14 -46 21
-65 6 -19 17 -51 24 -70 7 -19 18 -51 24 -70 7 -19 16 -48 21 -65 5 -16 14
-46 21 -65 6 -19 17 -51 24 -70 7 -19 18 -51 24 -70 7 -19 16 -48 21 -65 5
-16 14 -46 21 -65 6 -19 17 -51 24 -70 7 -19 18 -51 24 -70 7 -19 16 -48 21
-65 5 -16 14 -46 21 -65 6 -19 17 -51 24 -70 7 -19 18 -51 24 -70 7 -19 16
-48 21 -65 5 -16 14 -46 21 -65 6 -19 17 -51 24 -70 7 -19 18 -51 24 -70 7
-19 16 -48 21 -65 11 -39 29 -91 46 -133 8 -18 14 -39 14 -47 0 -8 14 -44 31
-80 62 -131 184 -190 313 -153 60 17 87 39 295 238 14 14 98 93 186 175 88 82
196 184 240 226 44 42 127 122 185 178 63 60 113 100 126 101 11 0 54 -25 95
-55 41 -29 88 -64 106 -77 79 -57 296 -213 450 -325 92 -68 233 -170 313 -228
80 -58 204 -148 275 -200 72 -52 139 -101 150 -109 11 -8 61 -44 110 -80 224
-163 289 -196 389 -196 52 0 147 27 169 49 6 6 16 11 23 11 18 0 103 98 121
139 18 42 40 126 52 196 5 28 13 70 19 95 6 25 19 81 28 125 9 44 22 109 30
145 7 36 20 101 30 145 9 44 22 109 30 145 7 36 20 101 29 145 9 44 23 106 31
137 8 32 14 67 14 79 0 12 6 45 14 73 15 52 32 135 46 216 4 25 12 65 18 90 6
25 19 81 28 125 9 44 22 109 30 145 7 36 20 101 30 145 9 44 22 109 30 145 7
36 20 101 30 145 37 182 46 222 56 265 6 25 14 65 18 90 14 81 31 164 46 216
8 28 14 61 14 73 0 12 6 47 14 79 8 31 21 92 30 135 20 94 43 209 63 302 8 39
20 99 28 135 38 185 47 229 57 270 6 25 14 65 18 90 4 25 12 65 18 90 5 25 17
80 26 123 9 42 23 112 32 155 9 42 22 106 30 142 7 36 20 101 29 145 9 44 23
106 31 137 8 32 14 67 14 79 0 12 6 45 14 73 15 52 32 135 46 216 4 25 12 65
18 90 15 62 41 187 47 233 4 23 11 37 20 37 12 0 15 17 15 85 0 66 -3 85 -14
85 -8 0 -18 13 -24 28 -24 68 -127 133 -211 131 -25 0 -75 -12 -111 -25z
m-957 -1056 c38 -50 8 -92 -193 -267 -47 -41 -87 -77 -90 -80 -3 -4 -54 -51
-115 -105 -130 -116 -262 -236 -290 -263 -11 -10 -58 -52 -105 -93 -72 -63
-153 -137 -205 -187 -7 -6 -34 -31 -61 -54 -43 -37 -208 -186 -238 -215 -6 -6
-56 -50 -111 -99 -55 -49 -105 -94 -111 -99 -37 -36 -197 -180 -239 -216 -27
-24 -52 -46 -55 -49 -3 -3 -54 -51 -115 -105 -130 -116 -262 -236 -290 -263
-11 -10 -58 -52 -105 -93 -99 -87 -92 -81 -161 -146 -30 -28 -76 -70 -104 -94
-44 -38 -209 -187 -239 -216 -6 -6 -56 -50 -111 -99 -137 -121 -135 -118 -135
-184 0 -31 -5 -83 -10 -116 -6 -33 -15 -105 -19 -160 -10 -109 -23 -233 -46
-420 -9 -66 -15 -146 -15 -177 0 -31 -4 -59 -9 -63 -11 -6 -51 78 -51 109 -1
11 -7 32 -15 46 -8 14 -14 35 -15 47 0 12 -6 37 -14 55 -7 18 -21 60 -31 93
-9 33 -23 78 -30 100 -7 22 -20 67 -30 100 -10 33 -24 78 -30 100 -7 22 -21
67 -30 100 -10 33 -22 71 -28 85 -5 14 -13 41 -17 60 -5 19 -13 49 -18 65 -27
79 -34 103 -47 145 -7 25 -20 68 -28 95 -8 28 -22 75 -31 105 -15 49 -22 75
-56 185 -38 126 -38 114 0 147 19 16 44 34 55 39 22 10 31 16 123 77 35 23 65
42 67 42 2 0 32 19 67 42 35 24 71 47 80 53 9 5 49 30 88 55 39 25 79 50 88
55 9 6 45 29 80 53 35 23 65 42 67 42 2 0 32 19 67 43 35 24 70 46 78 50 8 4
49 29 90 56 66 44 166 108 224 144 11 7 49 31 84 55 35 23 65 42 67 42 2 0 32
19 67 42 69 47 95 63 118 74 8 4 43 27 77 51 35 24 65 43 67 43 3 0 34 20 70
45 37 25 68 45 70 45 3 0 33 19 68 43 35 24 70 46 78 50 25 13 232 146 292
188 15 10 30 19 33 19 3 0 18 9 33 19 60 42 267 175 292 188 8 4 43 26 78 50
35 24 65 43 67 43 2 0 32 19 67 42 35 24 71 47 80 53 9 5 49 30 88 55 39 25
79 50 88 55 9 6 45 29 80 53 35 23 65 42 67 42 2 0 32 19 67 43 35 23 73 47
84 54 10 7 49 31 87 54 37 23 70 46 73 51 3 5 29 8 56 6 42 -2 55 -8 71 -30z"/>
</g>
</svg>
