<?xml version="1.0" standalone="no"?>
<!DOCTYPE svg PUBLIC "-//W3C//DTD SVG 20010904//EN"
 "http://www.w3.org/TR/2001/REC-SVG-20010904/DTD/svg10.dtd">
<svg version="1.0" xmlns="http://www.w3.org/2000/svg"
 width="225.000000pt" height="225.000000pt" viewBox="0 0 225.000000 225.000000"
 preserveAspectRatio="xMidYMid meet">
<metadata>
Created by potrace 1.16, written by Peter Selinger 2001-2019
</metadata>
<g transform="translate(0.000000,225.000000) scale(0.100000,-0.100000)"
fill="#000000" stroke="none">
<path d="M453 2032 c-73 -26 -127 -65 -168 -120 -66 -89 -65 -79 -65 -763 0
-608 0 -619 22 -676 25 -69 99 -147 173 -183 l50 -25 645 0 645 0 50 25 c74
36 148 114 174 184 21 58 21 62 19 694 l-3 637 -23 46 c-36 74 -87 125 -160
161 l-67 33 -620 2 c-576 2 -624 1 -672 -15z m1160 -336 c71 -29 107 -101 107
-217 0 -121 -54 -248 -190 -448 -186 -273 -358 -426 -492 -439 -61 -6 -101 11
-137 57 -51 64 -77 132 -145 371 -74 260 -102 330 -140 355 -25 17 -27 16 -77
-16 l-52 -33 -29 34 c-15 19 -28 38 -28 42 0 12 201 186 272 235 85 58 144 68
198 31 59 -40 78 -90 116 -296 49 -266 79 -360 121 -377 27 -10 112 89 167
196 38 74 46 100 46 144 0 46 -4 56 -26 74 -29 23 -61 26 -113 11 -19 -5 -36
-8 -38 -6 -2 2 10 34 26 71 51 113 116 178 210 211 48 17 163 17 204 0z"/>
</g>
</svg>
