<?xml version="1.0" standalone="no"?>
<!DOCTYPE svg PUBLIC "-//W3C//DTD SVG 20010904//EN"
 "http://www.w3.org/TR/2001/REC-SVG-20010904/DTD/svg10.dtd">
<svg version="1.0" xmlns="http://www.w3.org/2000/svg"
 width="675.000000pt" height="675.000000pt" viewBox="0 0 675.000000 675.000000"
 preserveAspectRatio="xMidYMid meet">
<metadata>
Created by potrace 1.10, written by Peter Selinger 2001-2011
</metadata>
<g transform="translate(0.000000,675.000000) scale(0.100000,-0.100000)"
fill="#ffffff" stroke="none">
<path d="M1470 6123 c-78 -18 -184 -49 -208 -62 -9 -5 -37 -19 -62 -31 -84
-39 -144 -83 -238 -174 -62 -60 -152 -166 -165 -196 -4 -8 -16 -28 -27 -45
-11 -16 -23 -37 -26 -45 -3 -8 -12 -28 -19 -45 -19 -42 -40 -103 -56 -155 -11
-37 -14 -384 -16 -1895 -3 -1691 -2 -1856 13 -1920 16 -68 32 -118 60 -180 7
-16 15 -37 18 -45 4 -8 15 -28 26 -45 11 -16 23 -38 26 -47 4 -10 10 -18 14
-18 5 0 20 -19 34 -42 40 -68 190 -204 291 -265 57 -34 159 -83 174 -83 9 0
26 -7 37 -15 10 -8 33 -15 49 -15 17 0 52 -7 79 -15 43 -13 283 -15 1843 -15
1593 0 1801 2 1861 16 84 19 185 50 215 66 104 53 132 71 206 127 118 91 233
222 270 308 6 11 15 24 20 28 6 3 11 14 11 24 0 10 7 24 15 31 8 7 15 21 15
32 0 11 6 29 12 41 19 33 38 122 48 217 11 112 11 3435 0 3570 -10 120 -20
165 -63 270 -53 127 -129 241 -233 344 -54 54 -155 136 -184 149 -8 4 -35 18
-59 32 -24 14 -50 25 -56 25 -7 0 -18 7 -25 15 -7 8 -22 15 -34 15 -11 0 -34
7 -50 15 -15 8 -40 15 -55 15 -14 0 -51 7 -81 15 -83 22 -3582 20 -3680 -2z
m3313 -1023 c63 -22 88 -35 148 -77 52 -36 131 -135 154 -193 4 -8 13 -30 21
-48 8 -18 14 -40 14 -50 0 -9 7 -35 15 -57 20 -57 20 -433 0 -490 -8 -22 -15
-51 -15 -65 0 -14 -7 -36 -15 -50 -8 -14 -14 -37 -15 -51 0 -14 -7 -34 -15
-45 -8 -10 -15 -27 -15 -37 0 -11 -6 -31 -14 -45 -7 -15 -21 -43 -29 -62 -30
-67 -119 -245 -138 -275 -10 -16 -22 -37 -25 -45 -7 -16 -96 -162 -126 -209
-10 -14 -21 -33 -25 -41 -5 -8 -30 -48 -58 -88 -27 -40 -56 -84 -63 -98 -7
-13 -17 -24 -23 -24 -5 0 -9 -5 -9 -11 0 -6 -20 -37 -45 -69 -25 -32 -45 -61
-45 -65 0 -7 -118 -166 -134 -180 -6 -5 -34 -39 -60 -75 -27 -36 -59 -76 -72
-90 -12 -14 -55 -63 -95 -110 -89 -105 -282 -298 -369 -368 -36 -29 -72 -58
-80 -65 -33 -28 -98 -77 -103 -77 -3 0 -28 -15 -55 -33 -49 -32 -137 -78 -197
-103 -94 -38 -138 -46 -252 -46 -125 0 -133 2 -228 64 -63 41 -173 167 -221
253 -34 59 -84 163 -84 172 0 6 -7 16 -15 23 -8 7 -15 22 -15 34 0 12 -5 27
-11 33 -6 6 -14 26 -19 44 -4 19 -13 48 -18 64 -6 17 -17 55 -26 85 -39 143
-48 177 -58 205 -6 17 -14 48 -18 70 -4 22 -13 55 -19 73 -6 17 -16 47 -22 65
-6 17 -14 48 -18 67 -4 19 -13 45 -19 57 -7 12 -12 34 -12 50 -1 15 -7 39 -15
53 -8 14 -14 39 -15 56 0 16 -4 34 -10 40 -5 5 -14 30 -19 54 -16 75 -33 133
-47 168 -8 18 -14 42 -14 53 0 11 -5 30 -12 42 -6 12 -15 38 -19 57 -4 19 -13
51 -19 70 -30 84 -43 117 -56 142 -8 14 -14 33 -14 41 0 8 -7 20 -15 27 -8 7
-15 18 -15 26 0 22 -78 132 -112 157 -18 14 -49 30 -68 37 -46 15 -76 3 -218
-95 -118 -80 -122 -82 -143 -54 -9 13 -29 37 -44 53 -14 16 -38 47 -53 69 -15
23 -35 49 -44 59 -10 10 -18 22 -18 27 0 4 28 32 63 62 34 29 64 56 67 59 7 9
106 96 166 148 28 23 75 65 105 93 30 28 81 72 114 97 33 26 71 58 85 73 33
35 226 179 240 179 5 0 10 5 10 10 0 6 10 15 23 20 12 6 36 19 52 30 28 19 35
22 68 35 6 3 19 9 27 14 48 28 123 42 202 39 141 -7 211 -43 318 -164 53 -59
150 -298 150 -367 0 -16 5 -37 11 -49 6 -11 15 -52 20 -92 11 -97 27 -189 44
-263 8 -34 15 -77 15 -96 0 -20 5 -48 11 -64 6 -15 14 -55 19 -88 10 -67 26
-148 42 -215 6 -25 14 -65 18 -90 9 -53 28 -133 42 -175 5 -16 14 -46 18 -65
13 -57 37 -120 80 -210 42 -87 60 -111 114 -144 28 -18 30 -18 72 3 40 20 214
194 214 214 0 4 19 34 43 65 24 31 47 64 50 72 4 8 16 29 27 45 11 17 24 39
30 50 6 11 19 34 30 50 10 17 30 53 44 82 15 28 31 55 36 58 6 3 10 14 10 24
0 10 7 24 15 31 8 7 15 21 15 30 0 10 6 31 14 47 46 91 51 116 51 248 0 116
-2 134 -22 165 -49 79 -128 119 -238 120 -66 0 -181 -24 -232 -49 -44 -21 -64
-4 -39 33 9 14 16 32 16 40 0 14 6 31 45 121 78 180 161 311 265 415 73 73
142 130 159 130 6 0 11 4 11 9 0 10 138 81 157 81 6 0 24 6 40 14 109 54 451
70 576 26z"/>
</g>
</svg>
